<svg xmlns="http://www.w3.org/2000/svg" width="493.218" height="393.183" viewBox="0 0 493.218 393.183">
  <g id="Grupo_41" data-name="Grupo 41" transform="translate(-743.614 -1745.193)">
    <path id="Caminho_16" data-name="Caminho 16" d="M608.576,685.713l-127.386-1.63.372-3.267,6.162-53.9H599.6l8.229,53.9.629,4.082Z" transform="translate(446.558 1452.663)" fill="#2f2e41"/>
    <path id="Caminho_17" data-name="Caminho 17" d="M608.455,706.392H544.88l-63.69-.815.372-3.267H607.826Z" transform="translate(446.558 1431.168)" opacity="0.1"/>
    <rect id="Retângulo_17" data-name="Retângulo 17" width="169.036" height="4.082" transform="translate(906.516 2134.293)" fill="#3f3d56"/>
    <path id="Caminho_18" data-name="Caminho 18" d="M747.867,249.27a10.63,10.63,0,0,0-10.58-10.68H265.23a10.63,10.63,0,0,0-10.58,10.68V535.412H747.867Z" transform="translate(488.964 1506.603)" fill="#fff"/>
    <path id="Caminho_19" data-name="Caminho 19" d="M254.65,649.8v33.514a10.58,10.58,0,0,0,10.58,10.58H737.287a10.58,10.58,0,0,0,10.58-10.58V649.8Z" transform="translate(488.964 1389.363)" fill="#fff"/>
    <path id="Caminho_37" data-name="Caminho 37" d="M0,0H454.835V257.225H0Z" transform="translate(764.024 1763.158)" fill="#e9e8ff"/>
    <path id="Caminho_20" data-name="Caminho 20" d="M598.613,684.9a11.008,11.008,0,0,0,8.672-4.211h0a10.892,10.892,0,0,0,.858-1.265l.493-.944a11.08,11.08,0,0,0,.215-8.736l-.686-1.394a11.024,11.024,0,1,0-18.208,12.339h0a11.009,11.009,0,0,0,8.657,4.211Z" transform="translate(394.033 1385.635)" fill="#2c2366"/>
    <path id="Caminho_21" data-name="Caminho 21" d="M587.42,632.06,638.242,683.1l-7.8-51.036Z" transform="translate(416.271 1451.197)" opacity="0.1"/>
    <rect id="Retângulo_19" data-name="Retângulo 19" width="15.12" height="4.59" transform="translate(784.227 1862.392)" fill="#2c2366" opacity="0.3"/>
    <rect id="Retângulo_20" data-name="Retângulo 20" width="15.12" height="4.59" transform="translate(1187.675 1862.528)" fill="#2c2366" opacity="0.3"/>
    <rect id="Retângulo_21" data-name="Retângulo 21" width="15.12" height="4.59" transform="translate(784.363 1894.655)" fill="#2c2366" opacity="0.3"/>
    <rect id="Retângulo_22" data-name="Retângulo 22" width="15.12" height="4.59" transform="translate(784.498 1926.918)" fill="#2c2366" opacity="0.3"/>
    <rect id="Retângulo_23" data-name="Retângulo 23" width="15.12" height="4.59" transform="translate(784.634 1959.174)" fill="#2c2366" opacity="0.3"/>
    <g id="Grupo_16" data-name="Grupo 16" transform="translate(799.347 1864.601)" opacity="0.2">
      <rect id="Retângulo_24" data-name="Retângulo 24" width="4.289" height="0.179" transform="translate(0 0)" fill="#f2f2f2"/>
      <path id="Caminho_24" data-name="Caminho 24" d="M713.024,405.8H704.6v-.179h8.428Zm-16.864,0h-8.429v-.179h8.429Zm-16.864,0H670.86v-.179H679.3Zm-16.864,0H654v-.179h8.436Zm-16.864,0h-8.436v-.179h8.436Zm-16.872,0h-8.428v-.179H628.7Zm-16.864,0H603.4v-.179h8.436Zm-16.864,0h-8.436v-.179h8.436Zm-16.864,0h-8.435v-.179H578.1Zm-16.871,0H552.8v-.179h8.429Zm-16.864,0h-8.436v-.179h8.436Zm-16.864,0h-8.436v-.179H527.5Zm-16.864,0H502.2v-.179h8.436Zm-16.871,0h-8.429v-.179h8.429Zm-16.864,0h-8.428v-.179H476.9Zm-16.864,0h-8.407v-.179h8.436Zm-16.864,0h-8.436v-.179h8.436Zm-16.872,0h-8.428v-.179H426.3Zm-16.864,0H401.01v-.179h8.443Zm-16.864,0h-8.436v-.179h8.436Zm-16.864,0h-8.436v-.179h8.436Zm-16.871,0H350.41v-.179h8.429Z" transform="translate(-337.685 -405.62)" fill="#f2f2f2"/>
      <rect id="Retângulo_25" data-name="Retângulo 25" width="4.289" height="0.179" transform="translate(383.775 0)" fill="#f2f2f2"/>
      <rect id="Retângulo_26" data-name="Retângulo 26" width="4.289" height="0.179" transform="translate(0 0)" fill="#f2f2f2"/>
      <path id="Caminho_25" data-name="Caminho 25" d="M713.024,405.8H704.6v-.179h8.428Zm-16.864,0h-8.429v-.179h8.429Zm-16.864,0H670.86v-.179H679.3Zm-16.864,0H654v-.179h8.436Zm-16.864,0h-8.436v-.179h8.436Zm-16.872,0h-8.428v-.179H628.7Zm-16.864,0H603.4v-.179h8.436Zm-16.864,0h-8.436v-.179h8.436Zm-16.864,0h-8.435v-.179H578.1Zm-16.871,0H552.8v-.179h8.429Zm-16.864,0h-8.436v-.179h8.436Zm-16.864,0h-8.436v-.179H527.5Zm-16.864,0H502.2v-.179h8.436Zm-16.871,0h-8.429v-.179h8.429Zm-16.864,0h-8.428v-.179H476.9Zm-16.864,0h-8.407v-.179h8.436Zm-16.864,0h-8.436v-.179h8.436Zm-16.872,0h-8.428v-.179H426.3Zm-16.864,0H401.01v-.179h8.443Zm-16.864,0h-8.436v-.179h8.436Zm-16.864,0h-8.436v-.179h8.436Zm-16.871,0H350.41v-.179h8.429Z" transform="translate(-337.685 -405.62)" fill="#f2f2f2"/>
      <rect id="Retângulo_27" data-name="Retângulo 27" width="4.289" height="0.179" transform="translate(383.775 0)" fill="#f2f2f2"/>
    </g>
    <rect id="Retângulo_28" data-name="Retângulo 28" width="15.12" height="4.59" transform="translate(784.227 1830.222)" fill="#2c2366" opacity="0.3"/>
    <rect id="Retângulo_29" data-name="Retângulo 29" width="15.12" height="4.59" transform="translate(1187.675 1830.357)" fill="#2c2366" opacity="0.3"/>
    <g id="Grupo_17" data-name="Grupo 17" transform="translate(799.347 1832.431)" opacity="0.2">
      <rect id="Retângulo_30" data-name="Retângulo 30" width="4.289" height="0.179" transform="translate(0)" fill="#f2f2f2"/>
      <path id="Caminho_26" data-name="Caminho 26" d="M713.024,360.8H704.6v-.179h8.428Zm-16.864,0h-8.429v-.179h8.429Zm-16.864,0H670.86v-.179H679.3Zm-16.864,0H654v-.179h8.436Zm-16.864,0h-8.436v-.179h8.436Zm-16.872,0h-8.428v-.179H628.7Zm-16.864,0H603.4v-.179h8.436Zm-16.864,0h-8.436v-.179h8.436Zm-16.864,0h-8.435v-.179H578.1Zm-16.871,0H552.8v-.179h8.429Zm-16.864,0h-8.436v-.179h8.436Zm-16.864,0h-8.436v-.179H527.5Zm-16.864,0H502.2v-.179h8.436Zm-16.871,0h-8.429v-.179h8.429Zm-16.864,0h-8.428v-.179H476.9Zm-16.864,0h-8.407v-.179h8.436Zm-16.864,0h-8.436v-.179h8.436Zm-16.872,0h-8.428v-.179H426.3Zm-16.864,0H401.01v-.179h8.443Zm-16.864,0h-8.436v-.179h8.436Zm-16.864,0h-8.436v-.179h8.436Zm-16.871,0H350.41v-.179h8.429Z" transform="translate(-337.685 -360.62)" fill="#f2f2f2"/>
      <rect id="Retângulo_31" data-name="Retângulo 31" width="4.289" height="0.179" transform="translate(383.775)" fill="#f2f2f2"/>
    </g>
    <rect id="Retângulo_32" data-name="Retângulo 32" width="15.12" height="4.59" transform="translate(1187.675 1894.655)" fill="#2c2366" opacity="0.3"/>
    <g id="Grupo_18" data-name="Grupo 18" transform="translate(799.347 1896.721)" opacity="0.2">
      <rect id="Retângulo_33" data-name="Retângulo 33" width="4.289" height="0.179" transform="translate(0 0.007)" fill="#f2f2f2"/>
      <path id="Caminho_27" data-name="Caminho 27" d="M713.024,450.729H704.6v-.179h8.428Zm-16.864,0h-8.429v-.179h8.429Zm-16.864,0H670.86v-.179H679.3Zm-16.864,0H654v-.179h8.436Zm-16.864,0h-8.436v-.179h8.436Zm-16.872,0h-8.428v-.179H628.7Zm-16.864,0H603.4v-.179h8.436Zm-16.864,0h-8.436v-.179h8.436Zm-16.864,0h-8.435v-.179H578.1Zm-16.871,0H552.8v-.179h8.429Zm-16.864,0h-8.436v-.179h8.436Zm-16.864,0h-8.436v-.179H527.5Zm-16.864,0H502.2v-.179h8.436Zm-16.871,0h-8.429v-.179h8.429Zm-16.864,0h-8.428v-.179H476.9Zm-16.864,0h-8.407v-.179h8.436Zm-16.864,0h-8.436v-.179h8.436Zm-16.872,0h-8.428v-.179H426.3Zm-16.864,0H401.01v-.179h8.443Zm-16.864,0h-8.436v-.179h8.436Zm-16.864,0h-8.436v-.179h8.436Zm-16.871,0H350.41v-.179h8.429Z" transform="translate(-337.685 -450.55)" fill="#f2f2f2"/>
      <rect id="Retângulo_34" data-name="Retângulo 34" width="4.289" height="0.179" transform="translate(383.775 0.007)" fill="#f2f2f2"/>
      <rect id="Retângulo_35" data-name="Retângulo 35" width="4.289" height="0.179" transform="translate(0 0.007)" fill="#f2f2f2"/>
      <path id="Caminho_28" data-name="Caminho 28" d="M713.024,450.729H704.6v-.179h8.428Zm-16.864,0h-8.429v-.179h8.429Zm-16.864,0H670.86v-.179H679.3Zm-16.864,0H654v-.179h8.436Zm-16.864,0h-8.436v-.179h8.436Zm-16.872,0h-8.428v-.179H628.7Zm-16.864,0H603.4v-.179h8.436Zm-16.864,0h-8.436v-.179h8.436Zm-16.864,0h-8.435v-.179H578.1Zm-16.871,0H552.8v-.179h8.429Zm-16.864,0h-8.436v-.179h8.436Zm-16.864,0h-8.436v-.179H527.5Zm-16.864,0H502.2v-.179h8.436Zm-16.871,0h-8.429v-.179h8.429Zm-16.864,0h-8.428v-.179H476.9Zm-16.864,0h-8.407v-.179h8.436Zm-16.864,0h-8.436v-.179h8.436Zm-16.872,0h-8.428v-.179H426.3Zm-16.864,0H401.01v-.179h8.443Zm-16.864,0h-8.436v-.179h8.436Zm-16.864,0h-8.436v-.179h8.436Zm-16.871,0H350.41v-.179h8.429Z" transform="translate(-337.685 -450.55)" fill="#f2f2f2"/>
      <rect id="Retângulo_36" data-name="Retângulo 36" width="4.289" height="0.179" transform="translate(383.775 0.007)" fill="#f2f2f2"/>
    </g>
    <rect id="Retângulo_37" data-name="Retângulo 37" width="15.12" height="4.59" transform="translate(1187.675 1926.782)" fill="#2c2366" opacity="0.3"/>
    <g id="Grupo_19" data-name="Grupo 19" transform="translate(799.347 1928.848)" opacity="0.2">
      <rect id="Retângulo_38" data-name="Retângulo 38" width="4.289" height="0.179" transform="translate(0)" fill="#f2f2f2"/>
      <path id="Caminho_29" data-name="Caminho 29" d="M713.024,495.669H704.6v-.179h8.428Zm-16.864,0h-8.429v-.179h8.429Zm-16.864,0H670.86v-.179H679.3Zm-16.864,0H654v-.179h8.436Zm-16.864,0h-8.436v-.179h8.436Zm-16.872,0h-8.428v-.179H628.7Zm-16.864,0H603.4v-.179h8.436Zm-16.864,0h-8.436v-.179h8.436Zm-16.864,0h-8.435v-.179H578.1Zm-16.871,0H552.8v-.179h8.429Zm-16.864,0h-8.436v-.179h8.436Zm-16.864,0h-8.436v-.179H527.5Zm-16.864,0H502.2v-.179h8.436Zm-16.871,0h-8.429v-.179h8.429Zm-16.864,0h-8.428v-.179H476.9Zm-16.864,0h-8.407v-.179h8.436Zm-16.864,0h-8.436v-.179h8.436Zm-16.872,0h-8.428v-.179H426.3Zm-16.864,0H401.01v-.179h8.443Zm-16.864,0h-8.436v-.179h8.436Zm-16.864,0h-8.436v-.179h8.436Zm-16.871,0H350.41v-.179h8.429Z" transform="translate(-337.685 -495.49)" fill="#f2f2f2"/>
      <rect id="Retângulo_39" data-name="Retângulo 39" width="4.289" height="0.179" transform="translate(383.775)" fill="#f2f2f2"/>
      <rect id="Retângulo_40" data-name="Retângulo 40" width="4.289" height="0.179" transform="translate(0)" fill="#f2f2f2"/>
      <path id="Caminho_30" data-name="Caminho 30" d="M713.024,495.669H704.6v-.179h8.428Zm-16.864,0h-8.429v-.179h8.429Zm-16.864,0H670.86v-.179H679.3Zm-16.864,0H654v-.179h8.436Zm-16.864,0h-8.436v-.179h8.436Zm-16.872,0h-8.428v-.179H628.7Zm-16.864,0H603.4v-.179h8.436Zm-16.864,0h-8.436v-.179h8.436Zm-16.864,0h-8.435v-.179H578.1Zm-16.871,0H552.8v-.179h8.429Zm-16.864,0h-8.436v-.179h8.436Zm-16.864,0h-8.436v-.179H527.5Zm-16.864,0H502.2v-.179h8.436Zm-16.871,0h-8.429v-.179h8.429Zm-16.864,0h-8.428v-.179H476.9Zm-16.864,0h-8.407v-.179h8.436Zm-16.864,0h-8.436v-.179h8.436Zm-16.872,0h-8.428v-.179H426.3Zm-16.864,0H401.01v-.179h8.443Zm-16.864,0h-8.436v-.179h8.436Zm-16.864,0h-8.436v-.179h8.436Zm-16.871,0H350.41v-.179h8.429Z" transform="translate(-337.685 -495.49)" fill="#f2f2f2"/>
      <rect id="Retângulo_41" data-name="Retângulo 41" width="4.289" height="0.179" transform="translate(383.775)" fill="#f2f2f2"/>
    </g>
    <rect id="Retângulo_42" data-name="Retângulo 42" width="15.12" height="4.59" transform="translate(1187.675 1958.902)" fill="#2c2366" opacity="0.3"/>
    <g id="Grupo_20" data-name="Grupo 20" transform="translate(799.347 1960.975)" opacity="0.2">
      <rect id="Retângulo_43" data-name="Retângulo 43" width="4.289" height="0.179" transform="translate(0 0)" fill="#f2f2f2"/>
      <path id="Caminho_31" data-name="Caminho 31" d="M713.024,540.609H704.6v-.179h8.428Zm-16.864,0h-8.429v-.179h8.429Zm-16.864,0H670.86v-.179H679.3Zm-16.864,0H654v-.179h8.436Zm-16.864,0h-8.436v-.179h8.436Zm-16.872,0h-8.428v-.179H628.7Zm-16.864,0H603.4v-.179h8.436Zm-16.864,0h-8.436v-.179h8.436Zm-16.864,0h-8.435v-.179H578.1Zm-16.871,0H552.8v-.179h8.429Zm-16.864,0h-8.436v-.179h8.436Zm-16.864,0h-8.436v-.179H527.5Zm-16.864,0H502.2v-.179h8.436Zm-16.871,0h-8.429v-.179h8.429Zm-16.864,0h-8.428v-.179H476.9Zm-16.864,0h-8.407v-.179h8.436Zm-16.864,0h-8.436v-.179h8.436Zm-16.872,0h-8.428v-.179H426.3Zm-16.864,0H401.01v-.179h8.443Zm-16.864,0h-8.436v-.179h8.436Zm-16.864,0h-8.436v-.179h8.436Zm-16.871,0H350.41v-.179h8.429Z" transform="translate(-337.685 -540.43)" fill="#f2f2f2"/>
      <rect id="Retângulo_44" data-name="Retângulo 44" width="4.289" height="0.179" transform="translate(383.775 0)" fill="#f2f2f2"/>
      <rect id="Retângulo_45" data-name="Retângulo 45" width="4.289" height="0.179" transform="translate(0 0)" fill="#f2f2f2"/>
      <path id="Caminho_32" data-name="Caminho 32" d="M713.024,540.609H704.6v-.179h8.428Zm-16.864,0h-8.429v-.179h8.429Zm-16.864,0H670.86v-.179H679.3Zm-16.864,0H654v-.179h8.436Zm-16.864,0h-8.436v-.179h8.436Zm-16.872,0h-8.428v-.179H628.7Zm-16.864,0H603.4v-.179h8.436Zm-16.864,0h-8.436v-.179h8.436Zm-16.864,0h-8.435v-.179H578.1Zm-16.871,0H552.8v-.179h8.429Zm-16.864,0h-8.436v-.179h8.436Zm-16.864,0h-8.436v-.179H527.5Zm-16.864,0H502.2v-.179h8.436Zm-16.871,0h-8.429v-.179h8.429Zm-16.864,0h-8.428v-.179H476.9Zm-16.864,0h-8.407v-.179h8.436Zm-16.864,0h-8.436v-.179h8.436Zm-16.872,0h-8.428v-.179H426.3Zm-16.864,0H401.01v-.179h8.443Zm-16.864,0h-8.436v-.179h8.436Zm-16.864,0h-8.436v-.179h8.436Zm-16.871,0H350.41v-.179h8.429Z" transform="translate(-337.685 -540.43)" fill="#f2f2f2"/>
      <rect id="Retângulo_46" data-name="Retângulo 46" width="4.289" height="0.179" transform="translate(383.775 0)" fill="#f2f2f2"/>
    </g>
    <line id="Linha_1" data-name="Linha 1" y2="128.816" transform="translate(848.638 1832.652)" fill="none" stroke="#f2f2f2" stroke-miterlimit="10" stroke-width="0.1"/>
    <line id="Linha_2" data-name="Linha 2" y2="128.816" transform="translate(900.825 1832.652)" fill="none" stroke="#f2f2f2" stroke-miterlimit="10" stroke-width="0.1"/>
    <line id="Linha_3" data-name="Linha 3" y2="128.816" transform="translate(953.012 1832.652)" fill="none" stroke="#f2f2f2" stroke-miterlimit="10" stroke-width="0.1"/>
    <line id="Linha_4" data-name="Linha 4" y2="128.816" transform="translate(1005.199 1832.652)" fill="none" stroke="#f2f2f2" stroke-miterlimit="10" stroke-width="0.1"/>
    <line id="Linha_5" data-name="Linha 5" y2="128.816" transform="translate(1057.386 1832.652)" fill="none" stroke="#f2f2f2" stroke-miterlimit="10" stroke-width="0.1"/>
    <line id="Linha_6" data-name="Linha 6" y2="128.816" transform="translate(1109.573 1832.652)" fill="none" stroke="#f2f2f2" stroke-miterlimit="10" stroke-width="0.1"/>
    <line id="Linha_7" data-name="Linha 7" y2="128.816" transform="translate(1161.76 1832.652)" fill="none" stroke="#f2f2f2" stroke-miterlimit="10" stroke-width="0.1"/>
    <path id="Caminho_33" data-name="Caminho 33" d="M708.735,348.563l-5.969,6.22a1.83,1.83,0,0,0-.3.436l-3.7,7.628a1.687,1.687,0,0,1-1.651.951l-1.187-.093a1.687,1.687,0,0,1-1.5-1.215l-1.144-3.96a1.694,1.694,0,0,0-3.231-.079l-1.923,5.633a1.694,1.694,0,0,1-1.608,1.151h-7.342a1.7,1.7,0,0,1-1.673-1.43l-2.073-12.975a1.694,1.694,0,0,0-3.189-.5l-10.63,20.982a1.694,1.694,0,0,1-2.488.622l-6.32-4.461a1.709,1.709,0,0,0-2.266.272l-2.395,2.767a1.613,1.613,0,0,0-.186.265l-6.391,11.059a1.68,1.68,0,0,1-1.637.836l-3.9-.386a1.707,1.707,0,0,0-.8.114l-3.489,1.394a1.694,1.694,0,0,1-2.145-.894l-.765-1.751a1.7,1.7,0,0,0-1.63-1.015l-3.989.186a1.673,1.673,0,0,0-1.265.665l-1.13,1.473a1.694,1.694,0,0,1-2.945-.472l-1.43-4.039a1.694,1.694,0,0,0-2.617-.793l-6.791,5.09-7.506,6.055a1.7,1.7,0,0,1-1.844.186l-5.827-3.024a1.709,1.709,0,0,0-1.015-.172l-11.8,1.652a1.7,1.7,0,0,0-1.43,1.3l-2.095,9.1a1.694,1.694,0,0,1-2.752.908h0a1.7,1.7,0,0,0-2.624.529L568.531,402a1.716,1.716,0,0,1-1.237.915l-3.653.608a1.7,1.7,0,0,0-.658.264l-5.755,3.832a1.681,1.681,0,0,1-.936.286h-2.7a1.694,1.694,0,0,1-1.559-1.022l-.715-1.709a1.694,1.694,0,0,0-2.273-.851l-6.248,2.924a1.7,1.7,0,0,1-1.594-.079l-2.86-1.723a1.709,1.709,0,0,0-.872-.243h-6.313a1.7,1.7,0,0,0-.936.286l-6.3,4.182a1.694,1.694,0,0,1-1.659.122l-2.86-1.351a1.694,1.694,0,0,0-1.995.422l-1.358,1.551a1.687,1.687,0,0,1-2.752-.286l-.408-.715a1.694,1.694,0,0,0-2.345-.629l-4.954,2.938a1.7,1.7,0,0,1-1.687,0l-2.045-1.137a1.679,1.679,0,0,0-1.523-.064l-1.945.887a1.709,1.709,0,0,1-2.323-1.029l-1.258-3.746a1.68,1.68,0,0,0-1.616-1.18h-1.83a1.656,1.656,0,0,1-.822-.214l-7.028-3.853a1.7,1.7,0,0,0-1.83.136l-5.154,3.86a1.679,1.679,0,0,1-1.015.336H469.04a1.679,1.679,0,0,0-.937.286l-1.215.808a1.694,1.694,0,0,1-2.459-.651l-.293-.579a1.687,1.687,0,0,0-1.516-.944h-3.253a1.694,1.694,0,0,0-1.337.658l-2.016,2.581a1.694,1.694,0,0,1-2.767-.136l-.572-.894a1.687,1.687,0,0,0-2.3-.543l-1.673,1a1.7,1.7,0,0,1-1.866-.079l-6.741-4.883a2.042,2.042,0,0,0-.386-.214l-5.269-2.023a1.694,1.694,0,0,0-2.145.944l-3.667,8.936a1.536,1.536,0,0,0-.107.393l-1.187,8.05a1.7,1.7,0,0,1-.443.908l-2.509,2.7a1.708,1.708,0,0,1-2.066.322l-4.354-2.416a1.694,1.694,0,0,0-2.431.929l-2.759,8.071a1.625,1.625,0,0,0-.093.551v5.09a1.694,1.694,0,0,1-1.022,1.551l-4.425,1.959a1.694,1.694,0,0,1-1.537-.1l-3.331-1.959a1.7,1.7,0,0,0-1.1-.214l-5.841.837a1.687,1.687,0,0,1-1.7-.829l-.987-1.687a1.68,1.68,0,0,0-.958-.758l-2.652-.829a1.687,1.687,0,0,0-1.766.479l-3.682,4.089a1.716,1.716,0,0,1-1.122.558l-5.433.458a1.6,1.6,0,0,0-.715.214l-9.472,5.447a1.7,1.7,0,0,1-1.9-.15l-2.688-2.145a1.716,1.716,0,0,0-1.058-.372H351.1a1.68,1.68,0,0,1-1.323-.636l-2.566-3.2a1.695,1.695,0,0,0-2.581-.071l-3.088,3.432a1.7,1.7,0,0,0-.436,1.13v42.636a1.694,1.694,0,0,0,1.694,1.694H710.065a1.694,1.694,0,0,0,1.694-1.7l-.1-134.635a1.7,1.7,0,0,0-2.924-1.208Z" transform="translate(464.313 1475.396)" fill="#2c2366" opacity="0.3"/>
    <path id="Caminho_34" data-name="Caminho 34" d="M708.412,425.861l-5.533,3.689a2.138,2.138,0,0,0-.507.479l-3.439,4.54a2.145,2.145,0,0,1-1.773.829l-1.123-.057a2.1,2.1,0,0,1-1.809-1.23l-.715-1.523a2.087,2.087,0,0,0-3.753-.121l-1.43,2.738a2.087,2.087,0,0,1-1.852,1.108h-7.092a2.08,2.08,0,0,1-2.03-1.587l-1.7-6.813a2.095,2.095,0,0,0-3.675-.794l-10.223,12.925a2.08,2.08,0,0,1-2.5.608l-6.57-2.967a2.094,2.094,0,0,0-2.145.222l-2.352,1.737a1.938,1.938,0,0,0-.307.286l-6.205,6.87a2.094,2.094,0,0,1-1.687.715l-4.053-.257a2.265,2.265,0,0,0-.658.057l-3.653.936a2.088,2.088,0,0,1-2.252-.844l-.415-.615a2.094,2.094,0,0,0-1.787-.908l-4.075.121a2.016,2.016,0,0,0-1.28.486l-1,.836a2.095,2.095,0,0,1-3.181-.593l-1.058-1.916a2.1,2.1,0,0,0-2.738-.879l-6.856,3.3-7.585,3.918a2.081,2.081,0,0,1-1.616.121l-6.041-2a2.147,2.147,0,0,0-.844-.1l-11.7.994a2.145,2.145,0,0,0-1.787,1.38l-1.694,4.733a2.094,2.094,0,0,1-2.974,1.129l-.072-.036a2.081,2.081,0,0,0-2.652.543l-1.329,1.7a2.147,2.147,0,0,1-1.43.794l-3.66.393a2.146,2.146,0,0,0-.6.15l-5.8,2.48a2.187,2.187,0,0,1-.822.165H553.6a2.1,2.1,0,0,1-1.73-.915l-.4-.586a2.1,2.1,0,0,0-2.331-.822l-6.5,1.966a2.1,2.1,0,0,1-1.358-.05l-3.017-1.158a2.06,2.06,0,0,0-.715-.143h-6.477a2.009,2.009,0,0,0-.815.172l-6.434,2.731a2.072,2.072,0,0,1-1.43.079l-3.181-.951a2.1,2.1,0,0,0-1.837.315l-1.394,1.022a2.1,2.1,0,0,1-2.81-.307l-.207-.236a2.1,2.1,0,0,0-2.316-.579l-5.183,1.98a2.087,2.087,0,0,1-1.43,0l-2.273-.815a2.145,2.145,0,0,0-1.287-.036l-2.145.622a2.1,2.1,0,0,1-2.452-1.072l-.8-1.609a2.1,2.1,0,0,0-1.873-1.158h-1.859a2.072,2.072,0,0,1-.715-.114l-7.213-2.531a2.072,2.072,0,0,0-1.6.086l-5.269,2.531a2.141,2.141,0,0,1-.908.207h-6.656a2.188,2.188,0,0,0-.822.164l-1.358.586a2.1,2.1,0,0,1-2.474-.636h0a2.088,2.088,0,0,0-1.651-.808h-3.36a2.1,2.1,0,0,0-1.33.472l-1.952,1.6a2.08,2.08,0,0,1-2.81-.143l-.443-.443a2.1,2.1,0,0,0-2.238-.479l-1.944.751a2.144,2.144,0,0,1-1.637-.057l-6.841-3.174a1.7,1.7,0,0,0-.379-.129l-5.369-1.323a2.081,2.081,0,0,0-2.259.9l-3.374,5.262a2.144,2.144,0,0,0-.279.658l-1.022,4.468a2.144,2.144,0,0,1-.858,1.258l-2.23,1.53a2.073,2.073,0,0,1-1.88.243l-4.59-1.63a2.1,2.1,0,0,0-2.566,1.029l-2.416,4.518a2.144,2.144,0,0,0-.243.987v2.037a2.1,2.1,0,0,1-1.537,2.016L407.1,483a2.061,2.061,0,0,1-1.294-.057l-3.5-1.323a2.059,2.059,0,0,0-.929-.129l-6.041.55a2.073,2.073,0,0,1-1.737-.672l-.715-.794a2.032,2.032,0,0,0-1.137-.643l-2.752-.557a2.144,2.144,0,0,0-1.63.35l-3.625,2.581a2.143,2.143,0,0,1-1.1.386l-5.555.293a2.185,2.185,0,0,0-.615.129l-9.644,3.574a2.045,2.045,0,0,1-1.673-.1l-2.788-1.43a2.091,2.091,0,0,0-.951-.229H351.046a2.1,2.1,0,0,1-1.315-.465l-2.509-2.009a2.1,2.1,0,0,0-2.524-.072l-2.688,1.916a2.1,2.1,0,0,0-.879,1.709v20.1a2.1,2.1,0,0,0,2.095,2.094H709.67a2.1,2.1,0,0,0,2.095-2.094l-.1-78.474a2.095,2.095,0,0,0-3.253-1.773Z" transform="translate(464.308 1453.31)" fill="#2c2366" opacity="0.3"/>
    <circle id="Elipse_2" data-name="Elipse 2" cx="5.004" cy="5.004" r="5.004" transform="translate(1169.195 1873.637)" fill="#2c2366"/>
    <path id="Caminho_35" data-name="Caminho 35" d="M709.564,494.48l-6.8,2.266a1.776,1.776,0,0,0-.372.179l-3.732,2.466a1.587,1.587,0,0,1-.915.257l-2.323-.057a1.585,1.585,0,0,1-1.144-.522l-1.43-1.573a1.594,1.594,0,0,0-2.273-.093l-2.409,2.259a1.574,1.574,0,0,1-1.087.436h-8.35a1.581,1.581,0,0,1-1.43-.887l-1.909-3.81a1.594,1.594,0,0,0-2.273-.636L661.3,502.25a1.608,1.608,0,0,1-1.2.207l-8.093-1.823a1.552,1.552,0,0,0-.9.057l-2.953,1.094a1.018,1.018,0,0,0-.221.1l-6.527,3.617a1.644,1.644,0,0,1-.822.2l-4.833-.157a1.452,1.452,0,0,0-.25,0l-4.647.594a1.624,1.624,0,0,1-1.144-.293l-.944-.715a1.573,1.573,0,0,0-.965-.307l-5.1.072a1.514,1.514,0,0,0-.593.121l-2.288.965a1.6,1.6,0,0,1-1.687-.293l-1.873-1.659a1.587,1.587,0,0,0-1.43-.365l-7.821,1.888-8.043,2.08a1.56,1.56,0,0,1-.658,0l-6.791-1.129a2.506,2.506,0,0,0-.329,0l-12.561.565a1.587,1.587,0,0,0-1.222.665l-1.894,2.609a1.587,1.587,0,0,1-1.716.608l-2.023-.558a1.616,1.616,0,0,0-1.28.2l-2.023,1.294a1.638,1.638,0,0,1-.772.243l-4.289.236a1.441,1.441,0,0,0-.243,0l-6.191,1.323a1.785,1.785,0,0,1-.336.036h-3.632a1.58,1.58,0,0,1-.937-.307l-.943-.715a1.565,1.565,0,0,0-1.172-.293l-7.728,1.158a1.689,1.689,0,0,1-.536,0l-3.631-.715a1.437,1.437,0,0,0-.3,0h-6.97a1.722,1.722,0,0,0-.329,0l-7.07,1.5a1.532,1.532,0,0,1-.572,0l-4.211-.636a1.637,1.637,0,0,0-.786.086l-2.7.987a1.565,1.565,0,0,1-1.337-.114l-1.28-.715a1.544,1.544,0,0,0-1.079-.186L504.991,515a1.587,1.587,0,0,1-.579,0l-3.1-.551a1.733,1.733,0,0,0-.507,0l-3.417.493a1.573,1.573,0,0,1-1.351-.443l-1.129-1.079a1.629,1.629,0,0,0-1.13-.465h-2.709a1.683,1.683,0,0,1-.272,0l-7.907-1.387a1.538,1.538,0,0,0-.651,0L476.267,513a1.589,1.589,0,0,1-.372.043h-7.2a1.683,1.683,0,0,0-.329,0l-2.438.522a1.63,1.63,0,0,1-1.222-.143l-.672-.436a1.6,1.6,0,0,0-.858-.25h-4.354a1.58,1.58,0,0,0-.6.121l-3.046,1.244a1.566,1.566,0,0,1-1.315-.05l-1.616-.815a1.609,1.609,0,0,0-1.015-.143l-3.189.615a1.572,1.572,0,0,1-.658,0l-7.392-1.716h-.165l-6.284-.779a1.615,1.615,0,0,0-1.172.329l-3.574,2.774a1.559,1.559,0,0,0-.465.586l-.8,1.78a1.609,1.609,0,0,1-.929.844l-2.745.937a1.5,1.5,0,0,1-.794.064l-6.105-1.087a1.6,1.6,0,0,0-1.366.407l-2.423,2.266a1.586,1.586,0,0,0-.5,1.165h0a1.587,1.587,0,0,1-1.373,1.573l-4.582.636a1.563,1.563,0,0,1-.515,0l-4.146-.787a1.619,1.619,0,0,0-.372,0l-6.927.315a1.636,1.636,0,0,1-.836-.193l-1.215-.665a1.513,1.513,0,0,0-.608-.193l-3.639-.365a1.625,1.625,0,0,0-.715.086l-4.289,1.523a1.634,1.634,0,0,1-.493.093l-6.1.164a1.476,1.476,0,0,0-.25,0l-10.33,1.909a1.674,1.674,0,0,1-.679,0l-3.517-.9a1.858,1.858,0,0,0-.4-.05H350.6A1.514,1.514,0,0,1,350,524.3l-3.474-1.387a1.58,1.58,0,0,0-1.13,0l-3.231,1.151a1.58,1.58,0,0,0-1.058,1.494v.715a1.587,1.587,0,0,0,1.587,1.594H710.151a1.587,1.587,0,0,0,1.587-1.594l-.093-30.218a1.594,1.594,0,0,0-2.08-1.58Z" transform="translate(464.313 1433.668)" fill="#2c2366" opacity="0.3"/>
    <circle id="Elipse_3" data-name="Elipse 3" cx="5.004" cy="5.004" r="5.004" transform="translate(893.962 1907.237)" fill="#2c2366"/>
    <circle id="Elipse_4" data-name="Elipse 4" cx="5.004" cy="5.004" r="5.004" transform="translate(1134.165 1875.782)" fill="#2c2366"/>
    <circle id="Elipse_5" data-name="Elipse 5" cx="5.004" cy="5.004" r="5.004" transform="translate(1009.774 1909.382)" fill="#2c2366"/>
    <circle id="Elipse_6" data-name="Elipse 6" cx="5.004" cy="5.004" r="5.004" transform="translate(1074.83 1891.509)" fill="#2c2366"/>
    <path id="Caminho_36" data-name="Caminho 36" d="M712.665,427.588a2.095,2.095,0,0,0-3.253-1.737l-5.533,3.689a2.144,2.144,0,0,0-.508.479l-3.439,4.54a2.145,2.145,0,0,1-1.773.829l-1.122-.057a2.1,2.1,0,0,1-1.809-1.23l-.715-1.523a2.088,2.088,0,0,0-3.753-.122l-1.43,2.738a2.087,2.087,0,0,1-1.852,1.108h-7.092a2.081,2.081,0,0,1-2.031-1.587l-1.7-6.813a2.095,2.095,0,0,0-3.674-.794l-10.223,12.925a2.08,2.08,0,0,1-2.5.608l-6.57-2.967a2.094,2.094,0,0,0-2.145.222l-2.352,1.737a1.932,1.932,0,0,0-.307.286l-6.205,6.87a2.094,2.094,0,0,1-1.687.715l-4.053-.257a2.261,2.261,0,0,0-.658.057l-3.653.937a2.088,2.088,0,0,1-2.252-.844l-.415-.615a2.094,2.094,0,0,0-1.787-.908L624.1,446a2.016,2.016,0,0,0-1.28.486l-1,.836a2.095,2.095,0,0,1-3.181-.593l-1.058-1.916a2.1,2.1,0,0,0-2.738-.879l-6.856,3.3-7.585,3.918a2.08,2.08,0,0,1-1.616.121l-6.041-2a2.147,2.147,0,0,0-.843-.1l-11.7,1a2.145,2.145,0,0,0-1.787,1.38l-1.694,4.733a2.094,2.094,0,0,1-2.974,1.129l-.071-.036a2.08,2.08,0,0,0-2.652.543l-1.33,1.7a2.144,2.144,0,0,1-1.43.793l-3.66.393a2.141,2.141,0,0,0-.6.15l-5.8,2.481a2.188,2.188,0,0,1-.822.165H554.6a2.1,2.1,0,0,1-1.73-.915l-.4-.586a2.094,2.094,0,0,0-2.33-.822l-6.5,1.966a2.1,2.1,0,0,1-1.358-.05l-3.017-1.158a2.061,2.061,0,0,0-.715-.143h-6.477a2.009,2.009,0,0,0-.815.171l-6.434,2.731a2.074,2.074,0,0,1-1.43.079l-3.181-.951a2.1,2.1,0,0,0-1.837.315l-1.394,1.022a2.1,2.1,0,0,1-2.81-.307l-.207-.236a2.1,2.1,0,0,0-2.316-.579l-5.183,1.98a2.088,2.088,0,0,1-1.43,0l-2.273-.815a2.144,2.144,0,0,0-1.287-.036l-2.145.622a2.1,2.1,0,0,1-2.452-1.072l-.8-1.608a2.1,2.1,0,0,0-1.873-1.158h-1.859a2.078,2.078,0,0,1-.715-.114l-7.213-2.531a2.072,2.072,0,0,0-1.6.086l-5.269,2.531a2.144,2.144,0,0,1-.908.207h-6.656a2.193,2.193,0,0,0-.822.164l-1.358.586a2.1,2.1,0,0,1-2.474-.636h0a2.087,2.087,0,0,0-1.651-.808h-3.36a2.1,2.1,0,0,0-1.329.472l-1.952,1.6a2.081,2.081,0,0,1-2.81-.143l-.443-.443a2.094,2.094,0,0,0-2.238-.479l-1.944.751a2.144,2.144,0,0,1-1.637-.057l-6.842-3.174a1.691,1.691,0,0,0-.379-.129l-5.369-1.322a2.08,2.08,0,0,0-2.259.9l-3.374,5.261a2.138,2.138,0,0,0-.279.658l-1.022,4.468a2.145,2.145,0,0,1-.858,1.258l-2.23,1.53a2.074,2.074,0,0,1-1.88.243l-4.59-1.63a2.094,2.094,0,0,0-2.566,1.029l-2.416,4.518a2.146,2.146,0,0,0-.243.987v2.038a2.1,2.1,0,0,1-1.537,2.016L408.1,483a2.059,2.059,0,0,1-1.294-.057l-3.5-1.323a2.06,2.06,0,0,0-.929-.129l-6.041.55a2.074,2.074,0,0,1-1.737-.672l-.715-.794a2.03,2.03,0,0,0-1.137-.643l-2.752-.558a2.144,2.144,0,0,0-1.63.35l-3.624,2.581a2.143,2.143,0,0,1-1.1.386l-5.555.293a2.195,2.195,0,0,0-.615.129l-9.644,3.574a2.044,2.044,0,0,1-1.673-.1l-2.788-1.43a2.092,2.092,0,0,0-.951-.229H352.046a2.094,2.094,0,0,1-1.315-.465l-2.51-2.009a2.094,2.094,0,0,0-2.524-.072l-2.688,1.916a2.1,2.1,0,0,0-.879,1.709" transform="translate(464.022 1453.313)" fill="none" stroke="#2c2366" stroke-miterlimit="10" stroke-width="1"/>
    <rect id="Retângulo_47" data-name="Retângulo 47" width="418.211" height="0.071" transform="translate(784.584 1990.843)" fill="#f2f2f2" opacity="0.2"/>
    <circle id="Elipse_7" data-name="Elipse 7" cx="3.574" cy="3.574" r="3.574" transform="translate(845.35 1987.305)" fill="#2c2366" opacity="0.3"/>
    <circle id="Elipse_8" data-name="Elipse 8" cx="3.574" cy="3.574" r="3.574" transform="translate(897.537 1987.305)" fill="#2c2366" opacity="0.3"/>
    <circle id="Elipse_9" data-name="Elipse 9" cx="3.574" cy="3.574" r="3.574" transform="translate(949.724 1987.305)" fill="#2c2366" opacity="0.3"/>
    <circle id="Elipse_10" data-name="Elipse 10" cx="3.574" cy="3.574" r="3.574" transform="translate(1001.911 1987.305)" fill="#2c2366" opacity="0.3"/>
    <circle id="Elipse_11" data-name="Elipse 11" cx="3.574" cy="3.574" r="3.574" transform="translate(1054.098 1987.305)" fill="#2c2366" opacity="0.3"/>
    <circle id="Elipse_12" data-name="Elipse 12" cx="3.574" cy="3.574" r="3.574" transform="translate(1106.285 1987.305)" fill="#2c2366" opacity="0.3"/>
    <circle id="Elipse_13" data-name="Elipse 13" cx="3.574" cy="3.574" r="3.574" transform="translate(1158.472 1987.305)" fill="#2c2366" opacity="0.3"/>
  </g>
</svg>
