<?xml version="1.0" encoding="iso-8859-1"?>
<!-- Generator: Adobe Illustrator 19.0.0, SVG Export Plug-In . SVG Version: 6.00 Build 0)  -->
<svg version="1.1" id="Capa_1" xmlns="http://www.w3.org/2000/svg" xmlns:xlink="http://www.w3.org/1999/xlink" x="0px" y="0px"
	 viewBox="0 0 387.52 387.52" style="enable-background:new 0 0 387.52 387.52;" xml:space="preserve" fill="#662838">
<g>
	<g>
		<path d="M334.827,202.24c-3.2-35.2-23.253-89.493-85.973-89.493c-48,0-89.28,40.747-105.28,60.693
			c-12.373,15.467-43.84,52.8-48.747,58.133c-5.44,6.293-14.4,17.92-23.787,17.92c-9.493,0-15.253-17.813-7.787-41.067
			c7.467-23.36,29.867-61.013,39.467-74.987c16.747-24.32,27.627-41.067,27.627-69.973c0-46.933-34.987-61.653-53.547-61.653
			c-28.16,0-52.693,21.333-58.133,26.773C11.093,36.267,4.693,42.56,0,48.32l37.547,36.267C52.48,69.333,67.413,55.68,74.133,58.453
			c10.56,4.373-0.213,22.187-6.4,32.533C62.4,99.947,6.72,173.867,6.72,225.6c0,27.307,10.133,49.92,28.693,63.573
			c16,11.84,37.013,15.467,56.32,9.813c22.827-6.72,41.6-29.76,65.28-58.987c25.813-31.787,60.373-73.387,87.04-73.387
			c34.773,0,35.2,21.547,37.547,38.293c-80.853,13.867-114.88,78.4-114.88,114.773s30.72,66.027,68.373,66.027
			c34.667,0,91.627-28.373,100.053-130.133h52.373V202.24H334.827z M235.733,333.547L235.733,333.547
			c-6.613,0-15.68-5.547-15.68-15.467c0-12.8,15.467-46.933,61.333-58.987C274.773,316.587,250.667,333.547,235.733,333.547z"/>
	</g>
</g>
<g>
</g>
<g>
</g>
<g>
</g>
<g>
</g>
<g>
</g>
<g>
</g>
<g>
</g>
<g>
</g>
<g>
</g>
<g>
</g>
<g>
</g>
<g>
</g>
<g>
</g>
<g>
</g>
<g>
</g>
</svg>
