<svg xmlns="http://www.w3.org/2000/svg" width="60" height="60" viewBox="0 0 60 60">
  <path id="Icon_awesome-pencil-ruler" data-name="Icon awesome-pencil-ruler" d="M12.827,28.6,28.6,12.83l-5.17-5.17L16.2,14.888a.928.928,0,0,1-1.314,0l-1.314-1.314a.928.928,0,0,1,0-1.314L20.8,5.032,16.859,1.089a3.717,3.717,0,0,0-5.257,0L1.089,11.6a3.718,3.718,0,0,0,0,5.257L12.827,28.6ZM58.351,14.911a5.63,5.63,0,0,0,0-7.96l-5.3-5.3a5.631,5.631,0,0,0-7.963,0L39.692,7.04,52.958,20.305ZM37.04,9.693l-34.8,34.8-2.2,12.59a2.488,2.488,0,0,0,2.882,2.878l12.592-2.208,34.795-34.8Zm21.87,33.448L54.969,39.2l-7.228,7.228a.928.928,0,0,1-1.314,0l-1.314-1.314a.93.93,0,0,1,0-1.314l7.228-7.228L47.169,31.4,31.4,47.168,43.141,58.91a3.717,3.717,0,0,0,5.257,0L58.911,48.4a3.717,3.717,0,0,0,0-5.257Z" transform="translate(0 0.001)" fill="#1bf2dd"/>
</svg>
