<svg xmlns="http://www.w3.org/2000/svg" width="83.5" height="73.063" viewBox="0 0 83.5 73.063">
  <path id="Icon_awesome-quote-right" data-name="Icon awesome-quote-right" d="M75.672,2.25H54.8a7.83,7.83,0,0,0-7.828,7.828V30.953A7.83,7.83,0,0,0,54.8,38.781H67.844V49.219A10.447,10.447,0,0,1,57.406,59.656H56.1a3.9,3.9,0,0,0-3.914,3.914V71.4A3.9,3.9,0,0,0,56.1,75.313h1.3A26.087,26.087,0,0,0,83.5,49.219V10.078A7.83,7.83,0,0,0,75.672,2.25ZM28.7,2.25H7.828A7.83,7.83,0,0,0,0,10.078V30.953a7.83,7.83,0,0,0,7.828,7.828H20.875V49.219A10.447,10.447,0,0,1,10.438,59.656h-1.3A3.9,3.9,0,0,0,5.219,63.57V71.4a3.9,3.9,0,0,0,3.914,3.914h1.3A26.087,26.087,0,0,0,36.531,49.219V10.078A7.83,7.83,0,0,0,28.7,2.25Z" transform="translate(0 -2.25)" fill="#1bf2dd"/>
</svg>
