<svg xmlns="http://www.w3.org/2000/svg" width="60" height="60" viewBox="0 0 60 45">
  <path id="Icon_awesome-code" data-name="Icon awesome-code" d="M26.145,47.956,20.427,46.3a1.127,1.127,0,0,1-.769-1.4L32.454.815a1.127,1.127,0,0,1,1.4-.769l5.718,1.659a1.127,1.127,0,0,1,.769,1.4l-12.8,44.085a1.123,1.123,0,0,1-1.4.769ZM15.459,37.436l4.078-4.35a1.125,1.125,0,0,0-.075-1.613L10.968,24l8.493-7.472a1.117,1.117,0,0,0,.075-1.613l-4.078-4.35a1.126,1.126,0,0,0-1.594-.047L.357,23.176a1.118,1.118,0,0,0,0,1.641L13.865,37.483a1.118,1.118,0,0,0,1.594-.047Zm30.673.056L59.64,24.826a1.118,1.118,0,0,0,0-1.641L46.131,10.509a1.135,1.135,0,0,0-1.594.047l-4.078,4.35a1.125,1.125,0,0,0,.075,1.613L49.028,24l-8.493,7.472a1.117,1.117,0,0,0-.075,1.613l4.078,4.35A1.126,1.126,0,0,0,46.131,37.493Z" transform="translate(0.002 -0.003)" fill="#1bf2dd"/>
</svg>
