<svg xmlns="http://www.w3.org/2000/svg" width="83.5" height="73.063" viewBox="0 0 83.5 73.063">
  <path id="Icon_awesome-quote-left" data-name="Icon awesome-quote-left" d="M75.672,38.781H62.625V28.344A10.447,10.447,0,0,1,73.063,17.906h1.3a3.9,3.9,0,0,0,3.914-3.914V6.164A3.9,3.9,0,0,0,74.367,2.25h-1.3A26.087,26.087,0,0,0,46.969,28.344V67.484A7.83,7.83,0,0,0,54.8,75.313H75.672A7.83,7.83,0,0,0,83.5,67.484V46.609A7.83,7.83,0,0,0,75.672,38.781Zm-46.969,0H15.656V28.344A10.447,10.447,0,0,1,26.094,17.906h1.3a3.9,3.9,0,0,0,3.914-3.914V6.164A3.9,3.9,0,0,0,27.4,2.25h-1.3A26.087,26.087,0,0,0,0,28.344V67.484a7.83,7.83,0,0,0,7.828,7.828H28.7a7.83,7.83,0,0,0,7.828-7.828V46.609A7.83,7.83,0,0,0,28.7,38.781Z" transform="translate(0 -2.25)" fill="#1bf2dd"/>
</svg>
