<?xml version="1.0" encoding="UTF-8" standalone="no"?>
<svg
   xmlns:dc="http://purl.org/dc/elements/1.1/"
   xmlns:cc="http://creativecommons.org/ns#"
   xmlns:rdf="http://www.w3.org/1999/02/22-rdf-syntax-ns#"
   xmlns:svg="http://www.w3.org/2000/svg"
   xmlns="http://www.w3.org/2000/svg"
   xmlns:sodipodi="http://sodipodi.sourceforge.net/DTD/sodipodi-0.dtd"
   xmlns:inkscape="http://www.inkscape.org/namespaces/inkscape"
   height="448pt"
   viewBox="0 -72 448.37226 448"
   width="448pt"
   version="1.1"
   id="svg12"
   sodipodi:docname="saturn.svg"
   inkscape:version="0.92.1 r15371">
  <metadata
     id="metadata18">
    <rdf:RDF>
      <cc:Work
         rdf:about="">
        <dc:format>image/svg+xml</dc:format>
        <dc:type
           rdf:resource="http://purl.org/dc/dcmitype/StillImage" />
      </cc:Work>
    </rdf:RDF>
  </metadata>
  <defs
     id="defs16" />
  <sodipodi:namedview
     pagecolor="#ffffff"
     bordercolor="#666666"
     borderopacity="1"
     objecttolerance="10"
     gridtolerance="10"
     guidetolerance="10"
     inkscape:pageopacity="0"
     inkscape:pageshadow="2"
     inkscape:window-width="1366"
     inkscape:window-height="704"
     id="namedview14"
     showgrid="false"
     inkscape:zoom="1"
     inkscape:cx="287.67139"
     inkscape:cy="356.53056"
     inkscape:window-x="0"
     inkscape:window-y="27"
     inkscape:window-maximized="1"
     inkscape:current-layer="svg12" />
  <path
     d="m72.859375 166.210938c.804687 8.996093 2.429687 17.898437 4.855469 26.601562.097656.328125.226562.636719.320312.964844 1.207032 4.332031 2.601563 8.597656 4.191406 12.800781.609376 1.601563 1.359376 3.136719 2.023438 4.714844 1.203125 2.855469 2.402344 5.71875 3.785156 8.492187.863282 1.730469 1.847656 3.394532 2.777344 5.089844 1.390625 2.535156 2.78125 5.070312 4.328125 7.535156 1.078125 1.714844 2.253906 3.375 3.40625 5.058594 1.058594 1.550781 2.167969 3.078125 3.296875 4.597656 1.777344-.511718 3.574219-1.03125 5.40625-1.597656 2.328125-.714844 4.640625-1.410156 7.042969-2.195312 2.847656-.933594 5.789062-1.964844 8.742187-3.007813 2.457032-.863281 4.886719-1.703125 7.402344-2.636719 3.039062-1.128906 6.167969-2.402344 9.285156-3.59375 2.578125-1.007812 5.121094-1.992187 7.746094-3.0625 3.199219-1.320312 6.488281-2.746094 9.765625-4.160156 2.640625-1.136719 5.257813-2.242188 7.945313-3.433594 3.40625-1.527344 6.894531-3.199218 10.398437-4.800781 2.640625-1.230469 5.25-2.398437 7.914063-3.6875 3.664062-1.757813 7.375-3.632813 11.078124-5.488281 2.546876-1.261719 5.066407-2.480469 7.617188-3.792969 4.105469-2.101563 8.25-4.328125 12.382812-6.535156 2.191407-1.167969 4.378907-2.289063 6.578126-3.488281 6.339843-3.453126 12.699218-7.015626 19.070312-10.6875 6.375-3.667969 12.644531-7.402344 18.816406-11.199219 2.054688-1.257813 4-2.527344 6.0625-3.792969 4.074219-2.535156 8.160156-5.070312 12.128906-7.632812 2.34375-1.511719 4.585938-3.039063 6.890626-4.558594 3.519531-2.328125 7.070312-4.648438 10.488281-6.984375 2.398437-1.65625 4.734375-3.3125 7.101562-4.96875 3.144531-2.207031 6.320313-4.40625 9.359375-6.613281 2.402344-1.730469 4.648438-3.449219 6.96875-5.175782 2.847656-2.121094 5.710938-4.242187 8.449219-6.355468 2.269531-1.75 4.414063-3.476563 6.597656-5.222657 2.59375-2.0625 5.203125-4.128906 7.671875-6.167969 2.105469-1.742187 4.089844-3.464843 6.097656-5.191406 2.328126-1.992187 4.65625-4 6.847657-5.945312 1.929687-1.726563 3.726562-3.421875 5.542969-5.117188 1.371093-1.28125 2.6875-2.546875 4-3.800781-.742188-1.710937-1.503907-3.417969-2.300782-5.089844-.882812-1.832031-1.730468-3.679687-2.683594-5.464843-1.367187-2.566407-2.871093-5.046876-4.382812-7.527344-.992188-1.597656-1.925781-3.285156-2.984375-4.878906-1.773437-2.664063-3.71875-5.222657-5.664063-7.777344-.976562-1.277344-1.871093-2.613282-2.894531-3.863282-3.054687-3.742187-6.273437-7.375-9.710937-10.847656-6.261719-6.46875-13.128906-12.320312-20.503906-17.480468-25.640626-18.351563-56.40625-28.1679692-87.9375-28.054688-83.910157.09375-151.90625 68.089844-152 152 0 4.742188.222656 9.335938.679687 14.023438zm0 0"
     id="path2" />
  <path
     d="m445.882812 24.1875c-10.214843-17.753906-53.597656-17.34375-112.34375.503906 2.449219 2.101563 4.816407 4.261719 7.105469 6.488282 1.808594-.472657 3.414063-.800782 5.152344-1.207032 1.949219-.464844 3.925781-.960937 5.789063-1.363281 2.496093-.527344 4.800781-.933594 7.203124-1.335937 1.648438-.277344 3.34375-.597657 4.910157-.796876 2.304687-.320312 4.433593-.503906 6.566406-.691406 1.402344-.117187 2.859375-.285156 4.1875-.351562 2.070313-.09375 3.949219 0 5.847656 0 1.175781 0 2.398438 0 3.527344.082031 1.824219.144531 3.4375.449219 5.070313.734375.96875.175781 2.015624.273438 2.921874.496094 1.460938.402344 2.894532.902344 4.289063 1.503906.742187.296875 1.597656.511719 2.285156.863281 1.285157.683594 2.496094 1.484375 3.625 2.402344.488281.367187 1.089844.65625 1.527344 1.0625 1.476563 1.339844 2.738281 2.898437 3.738281 4.625 8 13.878906-1.449218 33.976563-28.761718 61.480469-21.054688 20.359375-43.804688 38.886718-68 55.390625-7.65625 5.359375-15.496094 10.710937-23.679688 16-12.398438 8-25.34375 15.953125-38.648438 23.632812-46.296874 27.714844-95.824218 49.636719-147.464843 65.28125l-.207031.054688c-4.199219 1.121093-8.183594 2.054687-12 2.871093-1.257813.273438-2.398438.464844-3.640626.695313-2.574218.496094-5.101562.945313-7.503906 1.296875-1.3125.191406-2.566406.335938-3.824218.480469-2.167969.257812-4.261719.441406-6.269532.558593-1.167968.074219-2.335937.136719-3.449218.160157-.625 0-1.328126.089843-1.9375.089843-1.976563 0-3.839844-.089843-5.597657-.230468l-.800781-.089844c-2.261719-.210938-4.503906-.582031-6.710938-1.113281-.242187-.054688-.511718-.101563-.753906-.167969-1.949218-.511719-3.84375-1.21875-5.65625-2.101562-.328125-.160157-.648437-.3125-.960937-.480469-1.578125-.835938-3.050781-1.859375-4.382813-3.046875-.214844-.195313-.40625-.410156-.609375-.617188-2.757812-2.605468-4.660156-5.984375-5.453125-9.695312-.097656-.695313-.15625-1.394532-.175781-2.097656-.222656-1.347657-.316406-2.714844-.28125-4.078126.046875-.875.3125-1.832031.457031-2.746093.175782-1.378907.441406-2.75.800782-4.09375.292968-1.027344.796874-2.136719 1.191406-3.203125.527344-1.40625 1-2.789063 1.703125-4.269532.550781-1.167968 1.304687-2.402343 1.96875-3.609374.800781-1.496094 1.597656-2.96875 2.597656-4.527344.800781-1.289063 1.824219-2.648438 2.769531-4 1.105469-1.601563 2.191406-3.144532 3.464844-4.800782 1.09375-1.40625 2.351562-2.878906 3.566406-4.335937 1.402344-1.671875 2.777344-3.335937 4.328125-5.0625 1.367188-1.527344 2.886719-3.105469 4.382813-4.679687 1.160156-1.226563 2.175781-2.402344 3.410156-3.640626-.800781-3.105468-1.457031-6.273437-2.058594-9.480468-44.820312 41.960937-66.863281 79.390625-56.621094 97.160156 11.039063 19.199219 60.800782 17.167969 126.664063-5.105469 27.316406-9.359375 54-20.480469 79.878906-33.296875.273438-.132812.542969-.253906.800781-.382812 11.160157-5.429688 22.359376-11.253906 33.558594-17.398438 5.601563-3.078125 11.199219-6.234375 16.800782-9.464844 41.933593-23.832031 81.449218-51.679687 118-83.152343 52.183593-45.9375 78.800781-88 67.703124-107.199219zm0 0"
     id="path4" />
  <path
     d="m375.996094 154.273438c-.640625.53125-1.3125 1.058593-1.953125 1.601562-3.574219 2.9375-7.199219 5.863281-10.917969 8.800781-1.519531 1.191407-3.089844 2.398438-4.632812 3.566407-2.921876 2.257812-5.855469 4.511718-8.855469 6.753906-1.792969 1.335937-3.617188 2.664062-5.433594 4-2.855469 2.085937-5.726563 4.175781-8.648437 6.253906-1.933594 1.378906-3.878907 2.738281-5.839844 4.105469-2.910156 2.03125-5.84375 4.054687-8.800782 6.070312-2 1.351563-4.003906 2.683594-6.015624 4-3.070313 2.050781-6.175782 4.078125-9.3125 6.089844-1.957032 1.269531-3.910157 2.535156-5.894532 3.800781-3.457031 2.191406-6.96875 4.351563-10.480468 6.511719-1.703126 1.046875-3.382813 2.101563-5.101563 3.144531-5.25 3.199219-10.550781 6.335938-15.90625 9.40625-5.355469 3.070313-10.75 6.109375-16.191406 9.113282-1.761719.96875-3.511719 1.886718-5.265625 2.839843-3.65625 1.976563-7.300782 3.933594-10.949219 5.847657-2.074219 1.078124-4.128906 2.128906-6.191406 3.199218-3.355469 1.710938-6.699219 3.417969-10.042969 5.070313-2.144531 1.066406-4.277344 2.097656-6.398438 3.136719-3.273437 1.601562-6.542968 3.160156-9.800781 4.671874-2.121093.992188-4.230469 1.976563-6.34375 2.9375-3.328125 1.527344-6.648437 3-9.953125 4.457032-1.976562.863281-4 1.742187-5.917968 2.582031-3.609376 1.550781-7.199219 3.023437-10.746094 4.480469-1.597656.671875-3.277344 1.367187-4.894532 2.015625-4.960937 1.984375-9.878906 3.878906-14.753906 5.6875l-.589844.226562-.289062.109375c22.667969 12.804688 48.273438 19.5 74.304688 19.433594 83.152343-.089844 150.835937-66.90625 152-150.046875zm0 0"
     id="path6" />
  <path
     d="m67.179688 211.953125c-.230469-.605469-.496094-1.191406-.71875-1.796875l-.136719.144531c-2.089844 2.285157-3.929688 4.421875-5.601563 6.476563l-.933594 1.121094c-1.601562 1.945312-2.976562 3.777343-4.234374 5.511718-.261719.367188-.527344.730469-.800782 1.089844-1.191406 1.6875-2.253906 3.296875-3.148437 4.800781l-.433594.75c-.878906 1.496094-1.664063 2.921875-2.273437 4.199219v.089844c-.550782 1.160156-1.03125 2.355468-1.4375 3.574218l-.175782.488282c-.28125.886718-.496094 1.792968-.648437 2.710937l-.066407.441407c-.089843.671874-.109374 1.351562-.054687 2.023437v.242187c.050781.496094.195313.976563.425781 1.421876.257813.410156.59375.765624.980469 1.058593l.175781.148438c.535156.382812 1.105469.703125 1.707032.960937l.382812.160156c.835938.332032 1.695312.597657 2.566406.800782l.433594.089844c1.214844.265624 2.449219.457031 3.6875.574218h.046875c1.402344.136719 3 .199219 4.746094.207032h.511719c1.710937 0 3.625-.09375 5.671874-.261719l.960938-.074219c2.078125-.191406 4.34375-.457031 6.78125-.800781l1.082031-.167969c2.566407-.40625 5.296875-.894531 8.265625-1.519531h.132813c-.574219-.847657-1.085938-1.726563-1.648438-2.582031-.558593-.855469-1.117187-1.746094-1.671875-2.617188-2.621094-4.175781-5.109375-8.414062-7.34375-12.800781-.175781-.34375-.320312-.695313-.496094-1.039063-2.085937-4.175781-4-8.449218-5.695312-12.800781-.34375-.894531-.710938-1.75-1.039062-2.625zm0 0"
     id="path8" />
  <path
     d="m356.265625 48.523438c2.890625 3.65625 5.601563 7.390624 8.195313 11.261718.214843.320313.445312.625.664062.953125 2.664062 4.097657 5.085938 8.34375 7.375 12.671875.488281.921875.976562 1.847656 1.449219 2.777344.46875.925781.933593 1.726562 1.359375 2.609375l.0625-.074219c2.03125-2.261718 3.816406-4.382812 5.457031-6.398437l.6875-.847657c1.523437-1.921874 2.886719-3.730468 4.089844-5.425781l.566406-.800781c1.160156-1.679688 2.191406-3.261719 3.054687-4.726562l.28125-.503907c.855469-1.480469 1.601563-2.871093 2.183594-4.136719v-.070312c.519532-1.121094.964844-2.273438 1.34375-3.449219.046875-.152343.113282-.304687.152344-.449219.265625-.859374.460938-1.738281.59375-2.632812l.054688-.40625c.074218-.660156.074218-1.324219 0-1.984375l-.039063-.222656c-.0625-.503907-.214844-.992188-.449219-1.441407-.273437-.414062-.617187-.777343-1.015625-1.070312-.046875-.066406-.097656-.132812-.152343-.191406-.550782-.375-1.140626-.691406-1.761719-.945313-.140625-.066406-.292969-.128906-.453125-.183593-.855469-.332032-1.738282-.601563-2.632813-.800782l-.601562-.113281c-1.210938-.238281-2.433594-.414063-3.664063-.519531h-.328125c-1.367187-.101563-2.917969-.144532-4.582031-.136719h-.984375c-1.710937 0-3.609375.152344-5.640625.335937l-1.421875.136719c-2.121094.226563-4.386719.511719-6.851563.914063l-1.460937.246094c-2.640625.449218-5.410156.976562-8.449219 1.648437h-.175781c.441406.519531.800781 1.070313 1.253906 1.601563.632813.804687 1.234375 1.597656 1.839844 2.375zm0 0"
     id="path10" />
  <path
     style="fill:#ffffff;stroke-width:1.78973925"
     d="M 129.28498,410.23096 C 107.67894,378.01767 96.527239,340.39714 96.527239,299.72192 c 0,-36.49988 6.196671,-62.49244 22.358391,-93.78451 26.22876,-50.78371 73.30924,-88.49039 129.27306,-103.53458 15.87528,-4.267597 20.571,-4.708041 50.60908,-4.746984 30.31,-0.03929 34.59007,0.358534 50.60908,4.704054 56.58092,15.34888 104.94728,54.68522 130.83665,106.40941 l 4.65965,9.30951 -17.43621,15.04349 c -79.60538,68.68138 -201.57925,140.10599 -299.57987,175.42588 -32.96173,11.87955 -31.76785,11.82747 -38.57209,1.68277 z"
     id="path3708"
     inkscape:connector-curvature="0"
     transform="matrix(0.75062323,0,0,0.75062323,0,-72.18613)" />
  <path
     style="fill:#ffffff;stroke-width:1.78973925"
     d="M 36.398927,484.90747 C -16.866904,477.6001 -8.9599411,434.11214 58.867345,361.3321 c 18.398379,-19.74183 18.739514,-19.99902 20.046301,-15.11276 1.178417,4.40627 -0.258853,6.87369 -12.654288,21.72412 -17.606889,21.09408 -25.741506,36.99257 -25.926479,50.67133 -0.480928,35.56455 41.892549,41.27953 117.940361,15.90681 69.71399,-23.25949 136.40528,-55.67621 212.0841,-103.08799 85.08414,-53.3041 153.6539,-113.53739 171.00517,-150.21499 10.15987,-21.47619 6.28933,-38.36624 -10.77883,-47.03591 -7.90212,-4.01385 -11.0235,-4.51159 -27.74095,-4.42367 -11.43438,0.0601 -24.68434,1.40241 -33.71647,3.4156 -14.77498,3.29323 -14.90497,3.29107 -18.50363,-0.30759 l -3.62411,-3.62412 14.92415,-4.03852 c 30.46454,-8.24381 47.35089,-11.01484 73.17819,-12.00846 30.69514,-1.1809 42.60132,1.25942 53.10393,10.88434 5.52617,5.06437 6.5327,7.23588 7.21961,15.5758 3.57833,43.44473 -75.53795,128.41723 -191.06202,205.20453 -132.55657,88.1086 -295.23543,150.02414 -367.963453,140.04685 z"
     id="path3710"
     inkscape:connector-curvature="0"
     transform="matrix(0.75062323,0,0,0.75062323,0,-72.18613)" />
  <path
     style="fill:#ffffff;stroke-width:1.78973925"
     d="m 274.84749,499.11748 c -6.75783,-0.93237 -18.53584,-3.29069 -26.17335,-5.24072 -14.54138,-3.71274 -44.78007,-15.63148 -44.73826,-17.63382 0.0134,-0.63982 11.08737,-5.59097 24.60892,-11.00256 79.71839,-31.90487 181.32683,-90.76123 251.82183,-145.86696 9.44519,-7.38328 17.55081,-13.42414 18.01249,-13.42414 1.74791,0 0.73537,16.26082 -1.86663,29.97748 -7.79238,41.07806 -27.63203,77.32209 -58.71839,107.26962 -17.3668,16.73056 -30.47405,26.22492 -49.53937,35.8843 -13.33361,6.75543 -39.06103,15.3768 -54.17522,18.15433 -15.49414,2.84739 -45.35891,3.79652 -59.23202,1.88247 z"
     id="path3712"
     inkscape:connector-curvature="0"
     transform="matrix(0.75062323,0,0,0.75062323,0,-72.18613)" />
  <path
     style="fill:#ffffff;stroke-width:1.78973925"
     d="m 494.34265,188.21035 c -3.2493,-5.82195 -8.8882,-14.61229 -12.5309,-19.53407 -3.64269,-4.92178 -7.17262,-9.87274 -7.84428,-11.00213 -1.67027,-2.80857 26.76934,-6.7696 37.28384,-5.19285 10.56503,1.58432 13.603,4.70801 11.54791,11.87371 -2.11471,7.37353 -9.00293,18.85455 -16.45998,27.43482 l -6.08877,7.0059 z"
     id="path3714"
     inkscape:connector-curvature="0"
     transform="matrix(0.75062323,0,0,0.75062323,0,-72.18613)" />
  <path
     style="fill:#ffffff"
     d="m 68.571386,426.79334 c -7.972268,-2.79439 -8.67755,-8.47493 -2.527741,-20.35915 5.525911,-10.67855 20.165491,-29.8855 22.24936,-29.19088 0.506932,0.16898 3.05991,5.24648 5.673284,11.28335 4.52756,10.4586 11.518521,23.58479 16.908051,31.74644 1.36935,2.07368 2.29061,3.96944 2.04725,4.2128 -0.24336,0.24336 -4.69672,1.13241 -9.89634,1.97565 -10.677824,1.73167 -29.931094,1.91708 -34.453864,0.33179 z"
     id="path3722"
     inkscape:connector-curvature="0"
     transform="matrix(0.75062323,0,0,0.75062323,0,-72.18613)" />
  <path
     style="fill:#ffffff"
     d="m 75.071386,357.37081 c 0,-1.19894 4.165103,-7.36804 4.97457,-7.36804 2.08484,0 1.603986,3.02959 -0.854732,5.38519 -2.665982,2.55417 -4.119838,3.2539 -4.119838,1.98285 z"
     id="path3724"
     inkscape:connector-curvature="0"
     transform="matrix(0.75062323,0,0,0.75062323,0,-72.18613)" />
</svg>
