<svg height="430pt" viewBox="-56 0 430 430.06" width="430pt" xmlns="http://www.w3.org/2000/svg"><path d="m317.96875 78.148438v351.910156h-317.9375v-430.058594h242.828125v78.148438zm0 0" fill="#00acea"/><g fill="#00efd1"><path d="m242.859375 0 75.109375 78.148438h-75.109375zm0 0"/><path d="m200.898438 255.03125v13.277344h-145.539063v-13.277344c-.046875-16.503906 6.488281-32.34375 18.15625-44.015625 11.671875-11.667969 27.511719-18.203125 44.015625-18.15625h21.199219c16.503906-.046875 32.34375 6.484375 44.015625 18.15625 11.667968 11.667969 18.203125 27.511719 18.152344 44.015625zm0 0"/><path d="m157.878906 95.988281c14.203125 14.132813 16.4375 36.328125 5.339844 53.007813-11.101562 16.675781-32.4375 23.1875-50.957031 15.542968-18.515625-7.640624-29.050781-27.304687-25.15625-46.957031 3.890625-19.648437 21.132812-33.808593 41.164062-33.8125 11.105469-.03125 21.761719 4.367188 29.609375 12.21875zm0 0"/></g><path d="m259.699219 366.261719h-207.210938c-3.3125 0-6-2.6875-6-6 0-3.316407 2.6875-6 6-6h207.210938c3.316406 0 6 2.683593 6 6 0 3.3125-2.683594 6-6 6zm0 0" fill="#fedb41"/><path d="m172.53125 315.390625h-120.042969c-3.3125 0-6-2.6875-6-6s2.6875-6 6-6h120.042969c3.3125 0 6 2.6875 6 6s-2.6875 6-6 6zm0 0" fill="#fedb41"/></svg>