<svg viewBox="0 0 512 512" xmlns="http://www.w3.org/2000/svg"><path d="m0 0v271h91v60l75-56.101562 5.097656-3.898438h159.902344v-271zm0 0" fill="#76e2f8"/><path d="m331 0v271h-159.902344l-5.097656 3.898438v-274.898438zm0 0" fill="#25d9f8"/><path d="m239.5 189.398438-27 13.199218-46.5-92.996094-46.5 92.996094-27-13.199218 73.5-147zm0 0" fill="#e2e2e7"/><path d="m128.5 136h75v30h-75zm0 0" fill="#e2e2e7"/><path d="m239.5 189.398438-27 13.199218-46.5-92.996094v-67.203124zm0 0" fill="#d3d3d8"/><path d="m166 136h37.5v30h-37.5zm0 0" fill="#d3d3d8"/><path d="m181 181v271h159.902344l5.097656 3.898438 75 56.101562v-60h91v-271zm0 0" fill="#ececf1"/><path d="m512 181v271h-91v60l-75-56.101562v-274.898438zm0 0" fill="#e2e2e7"/><path d="m421 301v-30h-60v-30h-30v30h-60v30h32.402344c3.597656 13.199219 11.097656 26.398438 21.296875 39-14.398438 12.300781-29.398438 21-38.699219 21v30c17.402344 0 40.199219-12.300781 60-29.402344 19.800781 17.101563 42.597656 29.402344 60 29.402344v-30c-9.300781 0-24.300781-8.699219-38.699219-21 10.199219-12.601562 17.699219-25.800781 21.296875-39zm-75 17.398438c-4.5-6-8.402344-11.707032-10.800781-17.410157h21.601562c-2.398437 5.703125-6.300781 11.410157-10.800781 17.410157zm0 0" fill="#3e5959"/><path d="m388.597656 301c-3.597656 13.199219-11.097656 26.398438-21.296875 39 14.398438 12.300781 29.398438 21 38.699219 21v30c-17.402344 0-40.199219-12.300781-60-29.402344v-43.199218c4.5-6 8.402344-11.707032 10.800781-17.410157h-10.800781v-59.988281h15v30h60v30zm0 0" fill="#384949"/></svg>