<svg width="425" height="425" viewBox="0 0 425 425" fill="none" xmlns="http://www.w3.org/2000/svg">
<g clip-path="url(#clip0)">
<path d="M238.803 251.868C244.099 257.122 247.09 264.264 247.119 271.723C247.149 279.182 244.214 286.348 238.96 291.643L238.3 292.308C228.584 285.941 216.85 283.409 205.373 285.202C193.896 286.995 183.493 292.985 176.182 302.012C168.87 311.039 165.171 322.459 165.801 334.058C166.432 345.657 171.346 356.609 179.593 364.791C187.839 372.973 198.829 377.801 210.433 378.34C222.037 378.878 233.428 375.089 242.397 367.707C251.366 360.325 257.274 349.875 258.976 338.384C260.679 326.894 258.054 315.18 251.61 305.514L252.271 304.849C261.027 296.023 265.918 284.081 265.869 271.649C265.82 259.217 260.835 247.314 252.009 238.558L238.803 251.868ZM232.566 351.331C228.648 355.279 223.648 357.978 218.196 359.085C212.745 360.191 207.088 359.657 201.94 357.548C196.793 355.44 192.386 351.852 189.277 347.239C186.169 342.626 184.498 337.195 184.476 331.633C184.454 326.07 186.082 320.626 189.154 315.989C192.226 311.351 196.605 307.729 201.735 305.58C206.866 303.431 212.519 302.852 217.979 303.916C223.439 304.98 228.461 307.638 232.409 311.556C237.705 316.81 240.696 323.952 240.725 331.411C240.755 338.87 237.82 346.035 232.566 351.331Z" fill="white"/>
<path d="M185.562 199.045L198.768 185.734L238.699 225.352L225.493 238.662L185.562 199.045Z" fill="white"/>
<path d="M178.384 59.8602C170.772 67.5298 166.043 77.5939 164.998 88.3494C163.953 99.1049 166.657 109.891 172.651 118.882L171.99 119.548C163.234 128.373 158.343 140.316 158.392 152.747C158.441 165.179 163.426 177.083 172.251 185.839L185.457 172.528C180.162 167.275 177.171 160.133 177.141 152.674C177.112 145.214 180.047 138.049 185.301 132.754L185.961 132.088C193.379 136.95 202.024 139.606 210.892 139.751C219.76 139.895 228.487 137.52 236.059 132.902C243.631 128.285 249.738 121.614 253.67 113.664C257.602 105.714 259.198 96.8121 258.273 87.9915C257.347 79.1708 253.939 70.7937 248.443 63.833C242.946 56.8723 235.588 51.6136 227.223 48.6679C218.857 45.7221 209.827 45.2101 201.183 47.1912C192.538 49.1724 184.632 53.5654 178.384 59.8602ZM231.626 112.684C227.708 116.633 222.707 119.331 217.256 120.438C211.804 121.544 206.147 121.01 201 118.901C195.852 116.793 191.446 113.205 188.337 108.592C185.228 103.979 183.557 98.5483 183.535 92.9858C183.514 87.4232 185.142 81.9791 188.214 77.3418C191.286 72.7045 195.664 69.0824 200.795 66.9335C205.926 64.7845 211.578 64.2053 217.038 65.269C222.498 66.3327 227.52 68.9916 231.469 72.9094C236.764 78.163 239.756 85.305 239.785 92.7642C239.814 100.223 236.879 107.389 231.626 112.684Z" fill="white"/>
</g>
<defs>
<clipPath id="clip0">
<rect width="300" height="300" fill="white" transform="translate(0 213.034) rotate(-45.2257)"/>
</clipPath>
</defs>
</svg>
